<?xml version="1.0" encoding="UTF-8" standalone="no"?>
<!-- Created with Inkscape (http://www.inkscape.org/) -->

<svg
   xmlns:osb="http://www.openswatchbook.org/uri/2009/osb"
   xmlns:dc="http://purl.org/dc/elements/1.1/"
   xmlns:cc="http://creativecommons.org/ns#"
   xmlns:rdf="http://www.w3.org/1999/02/22-rdf-syntax-ns#"
   xmlns:svg="http://www.w3.org/2000/svg"
   xmlns="http://www.w3.org/2000/svg"
   xmlns:xlink="http://www.w3.org/1999/xlink"
   xmlns:sodipodi="http://sodipodi.sourceforge.net/DTD/sodipodi-0.dtd"
   xmlns:inkscape="http://www.inkscape.org/namespaces/inkscape"
   width="630"
   height="400"
   id="svg2"
   version="1.1"
   inkscape:version="0.48.4 r9939"
   sodipodi:docname="background.svg">
  <defs
     id="defs4">
    <linearGradient
       id="linearGradient5391"
       osb:paint="solid">
      <stop
         style="stop-color:#000000;stop-opacity:1;"
         offset="0"
         id="stop5393" />
    </linearGradient>
    <linearGradient
       id="linearGradient3942">
      <stop
         style="stop-color:#000000;stop-opacity:1;"
         offset="0"
         id="stop3944" />
      <stop
         style="stop-color:#000000;stop-opacity:0;"
         offset="1"
         id="stop3946" />
    </linearGradient>
  </defs>
  <sodipodi:namedview
     id="base"
     pagecolor="#ffffff"
     bordercolor="#666666"
     borderopacity="1.0"
     inkscape:pageopacity="0.0"
     inkscape:pageshadow="2"
     inkscape:zoom="1"
     inkscape:cx="360.47908"
     inkscape:cy="190.89748"
     inkscape:document-units="px"
     inkscape:current-layer="layer1"
     showgrid="false"
     inkscape:window-width="1360"
     inkscape:window-height="716"
     inkscape:window-x="0"
     inkscape:window-y="0"
     inkscape:window-maximized="1" />
  <metadata
     id="metadata7">
    <rdf:RDF>
      <cc:Work
         rdf:about="">
        <dc:format>image/svg+xml</dc:format>
        <dc:type
           rdf:resource="http://purl.org/dc/dcmitype/StillImage" />
        <dc:title></dc:title>
      </cc:Work>
    </rdf:RDF>
  </metadata>
  <g
     inkscape:label="Layer 1"
     inkscape:groupmode="layer"
     id="layer1"
     transform="translate(0,-652.36218)">
    <rect
       style="fill:#008000"
       id="rect3006"
       width="630"
       height="400"
       x="0"
       y="652.36218" />
    <path
       style="fill:#000000;fill-opacity:0.22164947;fill-rule:nonzero;stroke:none"
       d="m 38.460343,655.36219 c -2.718423,0 -5.238467,1.45822 -6.587717,3.81691 l -1.34299,2.34671 c -5.671393,0.18893 -11.125784,3.1672 -14.17914,8.3689 -2.110164,3.5952 -4.104281,5.7611 -5.612283,7.1532 -0.619401,0.5717 -0.9263745,1.3942 -0.8340675,2.2336 0.08943,0.8387 0.5725325,1.5949 1.3005795,2.0216 l 27.241481,15.9886 c 0.415747,0.245 0.887683,0.3676 1.357125,0.3676 0.335116,0 0.669725,-0.068 0.989573,-0.1979 0.765404,-0.3087 1.346485,-0.946 1.569176,-1.7388 0.708654,-2.5268 1.862493,-5.9927 3.406952,-8.6235 3.151233,-5.3727 2.982734,-11.8064 0.1131,-16.9216 l 1.286442,-2.2478 c 1.008567,-1.7619 1.266512,-3.8091 0.735111,-5.76774 -0.53535,-1.95663 -1.806083,-3.58948 -3.562457,-4.59444 l -2.120509,-1.20162 c -1.142719,-0.65496 -2.445962,-1.00372 -3.76037,-1.00372 z m 0.02827,5.61228 c 0.329723,0 0.661563,0.0678 0.961298,0.24034 l 2.120511,1.21575 c 0.460286,0.26399 0.793126,0.69895 0.933024,1.21575 0.138824,0.5126 0.06607,1.047 -0.197915,1.5126 l -0.226188,0.3959 c -0.744569,-0.6322 -1.533498,-1.2131 -2.403244,-1.7247 -1.029398,-0.6038 -2.107853,-1.09081 -3.194901,-1.45609 l 0.240324,-0.40997 c 0.360792,-0.6282 1.062028,-0.98778 1.767091,-0.98958 z m 15.578678,9.57054 c -1.733714,-0.016 -3.483444,0.2574 -5.174043,0.82 1.965592,5.3995 1.474616,11.4678 -1.456084,16.4693 -1.27364,2.1654 -2.247043,5.1396 -2.841482,7.2521 -0.369772,1.3115 -1.18412,2.4515 -2.276015,3.2373 0.916799,1.8246 1.437319,3.3454 1.781229,4.552 0.21766,0.7621 0.788662,1.375 1.526768,1.654 0.742596,0.2775 1.569126,0.1859 2.233602,-0.2403 l 24.894779,-16.0311 c 0.65389,-0.4191 1.07989,-1.1079 1.14508,-1.8801 0.065,-0.7711 -0.23542,-1.5418 -0.80579,-2.064 -1.80917,-1.6614 -4.21884,-4.0694 -5.76779,-6.4746 -2.99796,-4.658 -8.05912,-7.2465 -13.260256,-7.2946 z m -48.0366095,10.8994 c -0.590291,-0.038 -1.18763,0.158 -1.653998,0.5655 l -2.4456545,2.1488 c -0.662317,0.5614 -1.001137,1.4098 -0.918886,2.276 0.08046,0.864 0.575304,1.6328 1.328852,2.064 l 12.737194,7.2804 c -1.33362,2.333 -0.514291,5.312 1.837777,6.6584 0.77456,0.4422 1.612545,0.6503 2.445652,0.6503 1.692442,0 3.341105,-0.8625 4.24102,-2.4315 l 12.737195,7.2804 c 0.407485,0.2318 0.855871,0.3534 1.314716,0.3534 0.385396,0 0.771942,-0.086 1.130939,-0.2545 0.785518,-0.3708 1.100167,-1.0062 1.498493,-1.9508 0.199881,-0.4745 0.6927,-1.9367 0.6927,-1.9367 0.369234,-1.0303 -0.03619,-2.1817 -0.975436,-2.7426 L 7.0626625,681.76961 c -0.319281,-0.1901 -0.677807,-0.3024 -1.031981,-0.3252 z m 71.5177235,6.9553 c -0.57245,-0.015 -1.15421,0.1485 -1.654,0.4807 l -28.443103,18.8866 c -0.984685,0.6539 -1.449505,1.8607 -1.187485,3.0112 l 0.607881,2.6718 c 0.19162,0.791 0.756022,1.4411 1.51263,1.7388 0.756783,0.2978 1.608972,0.2083 2.29015,-0.2403 l 11.479027,-7.5773 c 1.38839,2.1003 4.22465,2.6695 6.34739,1.2723 2.11573,-1.397 2.71203,-4.2308 1.32886,-6.3332 l 11.47902,-7.5632 c 0.67759,-0.4483 1.10705,-1.2103 1.13094,-2.0215 0.0257,-0.8134 -0.35181,-1.5921 -1.00371,-2.0781 l -2.26187,-1.6823 c -0.48193,-0.3597 -1.05327,-0.5501 -1.62573,-0.5655 z"
       id="path3093"
       inkscape:connector-curvature="0"
       inkscape:tile-cx="40.720474"
       inkscape:tile-cy="30.000007"
       inkscape:tile-w="81.440948"
       inkscape:tile-h="59.999994"
       inkscape:tile-x0="-1.8126909e-09"
       inkscape:tile-y0="1e-05" />
    <use
       x="0"
       y="0"
       inkscape:tiled-clone-of="#path3093"
       xlink:href="#path3093"
       transform="matrix(-1,0,0,1,83.440948,67.199993)"
       id="use5804"
       width="600"
       height="400" />
    <use
       x="0"
       y="0"
       inkscape:tiled-clone-of="#path3093"
       xlink:href="#path3093"
       transform="translate(0,134.39999)"
       id="use5806"
       width="600"
       height="400" />
    <use
       x="0"
       y="0"
       inkscape:tiled-clone-of="#path3093"
       xlink:href="#path3093"
       transform="matrix(-1,0,0,1,83.440948,201.59998)"
       id="use5808"
       width="600"
       height="400" />
    <use
       x="0"
       y="0"
       inkscape:tiled-clone-of="#path3093"
       xlink:href="#path3093"
       transform="translate(0,268.79997)"
       id="use5810"
       width="600"
       height="400" />
    <use
       x="0"
       y="0"
       inkscape:tiled-clone-of="#path3093"
       xlink:href="#path3093"
       transform="matrix(-1,0,0,1,83.440948,335.99997)"
       id="use5812"
       width="600"
       height="400" />
    <use
       x="0"
       y="0"
       inkscape:tiled-clone-of="#path3093"
       xlink:href="#path3093"
       transform="matrix(-1,0,0,1,174.65481,0)"
       id="use5814"
       width="600"
       height="400" />
    <use
       x="0"
       y="0"
       inkscape:tiled-clone-of="#path3093"
       xlink:href="#path3093"
       transform="translate(91.21386,67.199993)"
       id="use5816"
       width="600"
       height="400" />
    <use
       x="0"
       y="0"
       inkscape:tiled-clone-of="#path3093"
       xlink:href="#path3093"
       transform="matrix(-1,0,0,1,174.65481,134.39999)"
       id="use5818"
       width="600"
       height="400" />
    <use
       x="0"
       y="0"
       inkscape:tiled-clone-of="#path3093"
       xlink:href="#path3093"
       transform="translate(91.21386,201.59998)"
       id="use5820"
       width="600"
       height="400" />
    <use
       x="0"
       y="0"
       inkscape:tiled-clone-of="#path3093"
       xlink:href="#path3093"
       transform="matrix(-1,0,0,1,174.65481,268.79997)"
       id="use5822"
       width="600"
       height="400" />
    <use
       x="0"
       y="0"
       inkscape:tiled-clone-of="#path3093"
       xlink:href="#path3093"
       transform="translate(91.21386,335.99997)"
       id="use5824"
       width="600"
       height="400" />
    <use
       x="0"
       y="0"
       inkscape:tiled-clone-of="#path3093"
       xlink:href="#path3093"
       transform="translate(182.42772,0)"
       id="use5826"
       width="600"
       height="400" />
    <use
       x="0"
       y="0"
       inkscape:tiled-clone-of="#path3093"
       xlink:href="#path3093"
       transform="matrix(-1,0,0,1,265.86867,67.199993)"
       id="use5828"
       width="600"
       height="400" />
    <use
       x="0"
       y="0"
       inkscape:tiled-clone-of="#path3093"
       xlink:href="#path3093"
       transform="translate(182.42772,134.39999)"
       id="use5830"
       width="600"
       height="400" />
    <use
       x="0"
       y="0"
       inkscape:tiled-clone-of="#path3093"
       xlink:href="#path3093"
       transform="matrix(-1,0,0,1,265.86867,201.59998)"
       id="use5832"
       width="600"
       height="400" />
    <use
       x="0"
       y="0"
       inkscape:tiled-clone-of="#path3093"
       xlink:href="#path3093"
       transform="translate(182.42772,268.79997)"
       id="use5834"
       width="600"
       height="400" />
    <use
       x="0"
       y="0"
       inkscape:tiled-clone-of="#path3093"
       xlink:href="#path3093"
       transform="matrix(-1,0,0,1,265.86867,335.99997)"
       id="use5836"
       width="600"
       height="400" />
    <use
       x="0"
       y="0"
       inkscape:tiled-clone-of="#path3093"
       xlink:href="#path3093"
       transform="matrix(-1,0,0,1,357.08254,0)"
       id="use5838"
       width="600"
       height="400" />
    <use
       x="0"
       y="0"
       inkscape:tiled-clone-of="#path3093"
       xlink:href="#path3093"
       transform="translate(273.64159,67.199993)"
       id="use5840"
       width="600"
       height="400" />
    <use
       x="0"
       y="0"
       inkscape:tiled-clone-of="#path3093"
       xlink:href="#path3093"
       transform="matrix(-1,0,0,1,357.08254,134.39999)"
       id="use5842"
       width="600"
       height="400" />
    <use
       x="0"
       y="0"
       inkscape:tiled-clone-of="#path3093"
       xlink:href="#path3093"
       transform="translate(273.64159,201.59998)"
       id="use5844"
       width="600"
       height="400" />
    <use
       x="0"
       y="0"
       inkscape:tiled-clone-of="#path3093"
       xlink:href="#path3093"
       transform="matrix(-1,0,0,1,357.08254,268.79997)"
       id="use5846"
       width="600"
       height="400" />
    <use
       x="0"
       y="0"
       inkscape:tiled-clone-of="#path3093"
       xlink:href="#path3093"
       transform="translate(273.64159,335.99997)"
       id="use5848"
       width="600"
       height="400" />
    <use
       x="0"
       y="0"
       inkscape:tiled-clone-of="#path3093"
       xlink:href="#path3093"
       transform="translate(364.85545,0)"
       id="use5850"
       width="600"
       height="400" />
    <use
       x="0"
       y="0"
       inkscape:tiled-clone-of="#path3093"
       xlink:href="#path3093"
       transform="matrix(-1,0,0,1,448.2964,67.199993)"
       id="use5852"
       width="600"
       height="400" />
    <use
       x="0"
       y="0"
       inkscape:tiled-clone-of="#path3093"
       xlink:href="#path3093"
       transform="translate(364.85545,134.39999)"
       id="use5854"
       width="600"
       height="400" />
    <use
       x="0"
       y="0"
       inkscape:tiled-clone-of="#path3093"
       xlink:href="#path3093"
       transform="matrix(-1,0,0,1,448.2964,201.59998)"
       id="use5856"
       width="600"
       height="400" />
    <use
       x="0"
       y="0"
       inkscape:tiled-clone-of="#path3093"
       xlink:href="#path3093"
       transform="translate(364.85545,268.79997)"
       id="use5858"
       width="600"
       height="400" />
    <use
       x="0"
       y="0"
       inkscape:tiled-clone-of="#path3093"
       xlink:href="#path3093"
       transform="matrix(-1,0,0,1,448.2964,335.99997)"
       id="use5860"
       width="600"
       height="400" />
    <use
       x="0"
       y="0"
       inkscape:tiled-clone-of="#path3093"
       xlink:href="#path3093"
       transform="matrix(-1,0,0,1,539.51026,0)"
       id="use5862"
       width="600"
       height="400" />
    <use
       x="0"
       y="0"
       inkscape:tiled-clone-of="#path3093"
       xlink:href="#path3093"
       transform="translate(456.06931,67.199993)"
       id="use5864"
       width="600"
       height="400" />
    <use
       x="0"
       y="0"
       inkscape:tiled-clone-of="#path3093"
       xlink:href="#path3093"
       transform="matrix(-1,0,0,1,539.51026,134.39999)"
       id="use5866"
       width="600"
       height="400" />
    <use
       x="0"
       y="0"
       inkscape:tiled-clone-of="#path3093"
       xlink:href="#path3093"
       transform="translate(456.06931,201.59998)"
       id="use5868"
       width="600"
       height="400" />
    <use
       x="0"
       y="0"
       inkscape:tiled-clone-of="#path3093"
       xlink:href="#path3093"
       transform="matrix(-1,0,0,1,539.51026,268.79997)"
       id="use5870"
       width="600"
       height="400" />
    <use
       x="0"
       y="0"
       inkscape:tiled-clone-of="#path3093"
       xlink:href="#path3093"
       transform="translate(456.06931,335.99997)"
       id="use5872"
       width="600"
       height="400" />
    <use
       x="0"
       y="0"
       inkscape:tiled-clone-of="#path3093"
       xlink:href="#path3093"
       transform="translate(547.28317,0)"
       id="use5874"
       width="600"
       height="400" />
    <use
       x="0"
       y="0"
       inkscape:tiled-clone-of="#path3093"
       xlink:href="#path3093"
       transform="matrix(-1,0,0,1,630.72412,67.199993)"
       id="use5876"
       width="600"
       height="400" />
    <use
       x="0"
       y="0"
       inkscape:tiled-clone-of="#path3093"
       xlink:href="#path3093"
       transform="translate(547.28317,134.39999)"
       id="use5878"
       width="600"
       height="400" />
    <use
       x="0"
       y="0"
       inkscape:tiled-clone-of="#path3093"
       xlink:href="#path3093"
       transform="matrix(-1,0,0,1,630.72412,201.59998)"
       id="use5880"
       width="600"
       height="400" />
    <use
       x="0"
       y="0"
       inkscape:tiled-clone-of="#path3093"
       xlink:href="#path3093"
       transform="translate(547.28317,268.79997)"
       id="use5882"
       width="600"
       height="400" />
    <use
       x="0"
       y="0"
       inkscape:tiled-clone-of="#path3093"
       xlink:href="#path3093"
       transform="matrix(-1,0,0,1,630.72412,335.99997)"
       id="use5884"
       width="600"
       height="400" />
  </g>
</svg>
